<!--<svg width="100%" height="100%" viewBox="0 0 1440 900" xmlns="http://www.w3.org/2000/svg" style="background: linear-gradient(135deg, #2d5a5a 0%, #4a7c7c 100%);">-->
<!--  &lt;!&ndash; Wavy lines flowing across the bottom portion, similar to reference image &ndash;&gt;-->

<!--  &lt;!&ndash; Wave 1 (bottom-most, most visible) &ndash;&gt;-->
<!--  <path-->
<!--          fill="none"-->
<!--          stroke="rgba(255,255,255)"-->
<!--          stroke-width="2"-->
<!--          d="M -100,750-->
<!--       Q 120,720 240,740-->
<!--       Q 360,760 480,740-->
<!--       Q 600,720 720,740-->
<!--       Q 840,760 960,740-->
<!--       Q 1080,720 1200,740-->
<!--       Q 1320,760 1440,740-->
<!--       L 1540,740"-->
<!--  />-->

<!--  &lt;!&ndash; Wave 2 (above wave 1) &ndash;&gt;-->
<!--  <path-->
<!--          fill="none"-->
<!--          stroke="rgba(255,255,255)"-->
<!--          stroke-width="1.8"-->
<!--          d="M -100,680-->
<!--       Q 120,655 240,672-->
<!--       Q 360,689 480,672-->
<!--       Q 600,655 720,672-->
<!--       Q 840,689 960,672-->
<!--       Q 1080,655 1200,672-->
<!--       Q 1320,689 1440,672-->
<!--       L 1540,672"-->
<!--  />-->

<!--  &lt;!&ndash; Wave 3 (middle) &ndash;&gt;-->
<!--  <path-->
<!--          fill="none"-->
<!--          stroke="rgba(255,255,255)"-->
<!--          stroke-width="1.5"-->
<!--          d="M -100,620-->
<!--       Q 120,598 240,612-->
<!--       Q 360,626 480,612-->
<!--       Q 600,598 720,612-->
<!--       Q 840,626 960,612-->
<!--       Q 1080,598 1200,612-->
<!--       Q 1320,626 1440,612-->
<!--       L 1540,612"-->
<!--  />-->

<!--  &lt;!&ndash; Wave 4 (higher up) &ndash;&gt;-->
<!--  <path-->
<!--          fill="none"-->
<!--          stroke="rgba(255,255,255)"-->
<!--          stroke-width="1.3"-->
<!--          d="M -100,570-->
<!--       Q 120,550 240,562-->
<!--       Q 360,574 480,562-->
<!--       Q 600,550 720,562-->
<!--       Q 840,574 960,562-->
<!--       Q 1080,550 1200,562-->
<!--       Q 1320,574 1440,562-->
<!--       L 1540,562"-->
<!--  />-->

<!--  &lt;!&ndash; Wave 5 (subtle, top wave) &ndash;&gt;-->
<!--  <path-->
<!--          fill="none"-->
<!--          stroke="rgba(255,255,255)"-->
<!--          stroke-width="1"-->
<!--          d="M -100,520-->
<!--       Q 120,504 240,514-->
<!--       Q 360,524 480,514-->
<!--       Q 600,504 720,514-->
<!--       Q 840,524 960,514-->
<!--       Q 1080,504 1200,514-->
<!--       Q 1320,524 1440,514-->
<!--       L 1540,514"-->
<!--  />-->
<!--</svg>-->

<svg width="100%" height="100%" viewBox="0 0 1440 900" xmlns="http://www.w3.org/2000/svg" style="background: linear-gradient(135deg, #2d5a5a 0%, #4a7c7c 100%);">
  <path fill="none" stroke="white" stroke-width="2"
        d="M -100,780
           Q 200,700 400,750
           Q 600,800 800,750
           Q 1000,700 1200,750
           Q 1400,800 1600,750"
  />

  <path fill="none" stroke="white" stroke-width="1.8"
        d="M -100,750
           Q 200,670 400,720
           Q 600,770 800,720
           Q 1000,670 1200,720
           Q 1400,770 1600,700"
  />

  <path fill="none" stroke="white" stroke-width="1.6" opacity="0.9"
        d="M -100,720
           Q 200,640 400,690
           Q 600,740 800,690
           Q 1000,640 1200,690
           Q 1400,740 1600,650"
  />

  <path fill="none" stroke="white" stroke-width="1.4" opacity="0.8"
        d="M -100,690
           Q 200,610 400,660
           Q 600,710 800,660
           Q 1000,610 1200,660
           Q 1400,710 1600,600"
  />

  <path fill="none" stroke="white" stroke-width="1.2" opacity="0.7"
        d="M -100,660
           Q 200,580 400,630
           Q 600,680 800,630
           Q 1000,580 1200,630
           Q 1400,680 1600,550"
  />

  <path fill="none" stroke="white" stroke-width="1.0" opacity="0.6"
        d="M -100,630
           Q 200,550 400,600
           Q 600,650 800,600
           Q 1000,550 1200,600
           Q 1400,650 1600,500"
  />
</svg>
