<svg width="100%" height="100%" viewBox="0 0 1440 900" xmlns="http://www.w3.org/2000/svg" style="background: #F4F5F2;">
  <path fill="none" stroke="white" stroke-width="2"
        d="M -100,780
           Q 200,700 400,750
           Q 600,800 800,750
           Q 1000,700 1200,750
           Q 1400,800 1600,750"
  />

  <path fill="none" stroke="white" stroke-width="1.8"
        d="M -100,750
           Q 200,670 400,720
           Q 600,770 800,720
           Q 1000,670 1200,720
           Q 1400,770 1600,700"
  />

  <path fill="none" stroke="white" stroke-width="1.6" opacity="0.9"
        d="M -100,720
           Q 200,640 400,690
           Q 600,740 800,690
           Q 1000,640 1200,690
           Q 1400,740 1600,650"
  />

  <path fill="none" stroke="white" stroke-width="1.4" opacity="0.8"
        d="M -100,690
           Q 200,610 400,660
           Q 600,710 800,660
           Q 1000,610 1200,660
           Q 1400,710 1600,600"
  />

  <path fill="none" stroke="white" stroke-width="1.2" opacity="0.7"
        d="M -100,660
           Q 200,580 400,630
           Q 600,680 800,630
           Q 1000,580 1200,630
           Q 1400,680 1600,550"
  />

  <path fill="none" stroke="white" stroke-width="1.0" opacity="0.6"
        d="M -100,630
           Q 200,550 400,600
           Q 600,650 800,600
           Q 1000,550 1200,600
           Q 1400,650 1600,500"
  />

  <path fill="none" stroke="white" stroke-width="1.0" opacity="0.5"
        d="M -100,600
           Q 200,520 400,570
           Q 600,620 800,570
           Q 1000,520 1200,570
           Q 1400,620 1600,450"
  />

  <path fill="none" stroke="white" stroke-width="1.0" opacity="0.4"
        d="M -100,570
           Q 200,490 400,540
           Q 600,590 800,540
           Q 1000,490 1200,540
           Q 1400,590 1600,400"
  />
</svg>
